HIERARCHY
ROOT Hips
{
	OFFSET 0.000000 8.830580 0.000000
	CHANNELS 6 Xposition Yposition Zposition Zrotation Yrotation Xrotation 
	JOINT Spine
	{
		OFFSET 0.000000 0.010000 0.000000
		CHANNELS 3 Zrotation Yrotation Xrotation
		JOINT Spine1
		{
			OFFSET 0.000000 2.459130 0.000000
			CHANNELS 3 Zrotation Yrotation Xrotation
			JOINT Neck
			{
				OFFSET 0.000000 2.484630 0.000000
				CHANNELS 3 Zrotation Yrotation Xrotation
				JOINT Head_virtual
				{
					OFFSET 0.000000 0.000000 0.000000
					CHANNELS 3 Zrotation Yrotation Xrotation
					JOINT Head
					{
						OFFSET 0.000000 0.927525 0.000000
						CHANNELS 3 Zrotation Yrotation Xrotation
						End Site
						{
							OFFSET 0.000000 0.000000 0.000000
						}
					}
				}
				JOINT LeftUpArm_virtual
				{
					OFFSET 0.000000 0.000000 0.000000
					CHANNELS 3 Zrotation Yrotation Xrotation
					JOINT LeftUpArm
					{
						OFFSET 1.248820 0.000000 0.000000
						CHANNELS 3 Zrotation Yrotation Xrotation
						JOINT LeftForeArm
						{
							OFFSET 2.597580 0.000000 0.000000
							CHANNELS 3 Zrotation Yrotation Xrotation
							JOINT LeftHand
							{
								OFFSET 2.455420 0.000000 0.000000
								CHANNELS 3 Zrotation Yrotation Xrotation
								End Site
								{
									OFFSET 0.000000 0.000000 0.000000
								}
							}
						}
					}
				}
				JOINT RightUpArm_virtual
				{
					OFFSET -0.000000 -0.000000 -0.000000
					CHANNELS 3 Zrotation Yrotation Xrotation
					JOINT RightUpArm
					{
						OFFSET -1.248820 -0.000000 -0.000000
						CHANNELS 3 Zrotation Yrotation Xrotation
						JOINT RightForeArm
						{
							OFFSET -2.597580 -0.000000 -0.000000
							CHANNELS 3 Zrotation Yrotation Xrotation
							JOINT RightHand
							{
								OFFSET -2.455420 -0.000000 -0.000000
								CHANNELS 3 Zrotation Yrotation Xrotation
								End Site
								{
									OFFSET 0.000000 0.000000 0.000000
								}
							}
						}
					}
				}
			}
		}
	}
	JOINT LeftUpLeg
	{
		OFFSET 1.271939 0.000000 0.000000
		CHANNELS 3 Zrotation Yrotation Xrotation
		JOINT LeftLowLeg
		{
			OFFSET 0.000000 -4.342910 0.000000
			CHANNELS 3 Zrotation Yrotation Xrotation
			JOINT LeftFoot
			{
				OFFSET 0.000000 -4.487670 0.000000
				CHANNELS 3 Zrotation Yrotation Xrotation
				JOINT LeftToeBase
				{
					OFFSET 0.000000 0.000000 1.515070
					CHANNELS 3 Zrotation Yrotation Xrotation
					End Site
					{
						OFFSET 0.000000 0.000000 0.000000
					}
				}
			}
		}
	}
	JOINT RightUpLeg
	{
		OFFSET -1.271939 0.000000 0.000000
		CHANNELS 3 Zrotation Yrotation Xrotation
		JOINT RightLowLeg
		{
			OFFSET 0.000000 -4.342910 0.000000
			CHANNELS 3 Zrotation Yrotation Xrotation
			JOINT RightFoot
			{
				OFFSET 0.000000 -4.487670 0.000000
				CHANNELS 3 Zrotation Yrotation Xrotation
				JOINT RightToeBase
				{
					OFFSET 0.000000 0.000000 1.515070
					CHANNELS 3 Zrotation Yrotation Xrotation
					End Site
					{
						OFFSET 0.000000 0.000000 0.000000
					}
				}
			}
		}
	}
}
MOTION
Frames: 13
Frame Time: 0.041667
-18.695012 9.205882 44.467070 -175.987429 -1.347206 -172.430289 2.655406 -1.128039 -9.791756 0.383821 -1.415420 4.082748 0.000000 0.000000 0.000000 -3.409839 1.345252 -10.839767 5.486103 5.929730 -54.418390 -3.827960 11.872900 -2.762040 -12.147700 -4.159780 -27.052500 0.000000 -18.416000 0.000000 28.889500 5.832560 24.282000 10.047100 -10.869200 1.834010 11.560500 -0.301978 -37.645802 0.000000 23.205700 0.000000 -19.375000 -1.783760 25.532200 4.421016 0.785623 -5.739031 0.000000 0.000000 6.907950 -12.520813 0.616605 5.667099 0.000000 0.000000 -36.883200 2.481290 4.850636 -3.392294 0.000000 0.000000 5.523070 7.256009 -7.991820 8.946471 0.000000 0.000000 -27.980600 
-18.695235 9.205845 44.467922 -175.989692 -1.344009 -172.433472 2.652621 -1.128176 -9.791817 0.380583 -1.414887 4.090989 0.000000 0.000000 0.000000 -3.419233 1.345832 -10.840802 5.493023 5.920847 -54.408263 -3.839440 11.870500 -2.770670 -12.147500 -4.149430 -27.012800 0.000000 -18.427999 0.000000 28.807699 5.844920 24.181200 10.051900 -10.855500 1.864530 11.567000 -0.292919 -37.660900 0.000000 23.207701 0.000000 -19.376101 -1.791030 25.552999 4.415735 0.796319 -5.739466 0.000000 0.000000 6.905910 -12.511966 0.614156 5.675447 0.000000 0.000000 -36.882099 2.475330 4.876886 -3.401308 0.000000 0.000000 5.537320 7.271336 -8.007440 8.931181 0.000000 0.000000 -27.971300 
-18.695376 9.205750 44.468776 -175.986186 -1.345102 -172.437883 2.677198 -1.103118 -9.767688 0.329337 -1.397036 4.054777 0.000000 0.000000 0.000000 -3.395270 1.336220 -10.822800 5.512939 5.920307 -54.397928 -3.819500 11.828900 -2.732850 -12.145100 -4.147350 -26.981199 0.000000 -18.416700 0.000000 28.740900 5.837560 24.223600 10.086700 -10.895100 1.862550 11.561800 -0.271107 -37.640301 0.000000 23.198099 0.000000 -19.327200 -1.856960 25.528999 4.418344 0.814492 -5.748873 0.000000 0.000000 6.922590 -12.505003 0.593074 5.671415 0.000000 0.000000 -36.872801 2.477675 4.876502 -3.408081 0.000000 0.000000 5.550280 7.278667 -7.999617 8.927361 0.000000 0.000000 -27.976100 
-18.695715 9.205640 44.470362 -175.988268 -1.339849 -172.443350 2.675794 -1.101577 -9.762682 0.314335 -1.395320 4.060766 0.000000 0.000000 0.000000 -3.395283 1.336153 -10.826206 5.504173 5.918613 -54.371986 -3.834620 11.806500 -2.719130 -12.146800 -4.127370 -26.952101 0.000000 -18.388201 0.000000 28.764200 5.866150 24.188601 10.101200 -10.893000 1.898340 11.570600 -0.228657 -37.612900 0.000000 23.195499 0.000000 -19.290300 -1.845700 25.574699 4.413390 0.817543 -5.756258 0.000000 0.000000 6.929910 -12.518183 0.593274 5.671445 0.000000 0.000000 -36.899500 2.472588 4.875288 -3.426953 0.000000 0.000000 5.579870 7.288479 -7.993878 8.915710 0.000000 0.000000 -27.976700 
-18.695896 9.205625 44.471146 -175.989079 -1.337548 -172.454745 2.674993 -1.096937 -9.750335 0.308668 -1.390633 4.059788 0.000000 0.000000 0.000000 -3.403862 1.341066 -10.820113 5.507693 5.917245 -54.367418 -3.834700 11.801700 -2.715910 -12.172400 -4.135730 -27.001400 0.000000 -18.383699 0.000000 28.794001 5.890730 24.191200 10.105600 -10.876400 1.898620 11.578200 -0.242974 -37.609798 0.000000 23.216299 0.000000 -19.264999 -1.895850 25.606100 4.413089 0.794204 -5.743644 0.000000 0.000000 6.919430 -12.514048 0.612363 5.675065 0.000000 0.000000 -36.872299 2.470317 4.881754 -3.425722 0.000000 0.000000 5.589250 7.287009 -7.997494 8.911214 0.000000 0.000000 -27.967500 
-18.696138 9.205631 44.471718 -175.986930 -1.339534 -172.459877 2.674463 -1.091490 -9.749126 0.306412 -1.385175 4.066651 0.000000 0.000000 0.000000 -3.395440 1.336781 -10.820495 5.510327 5.917095 -54.365974 -3.847110 11.798900 -2.719200 -12.178100 -4.153890 -27.023800 0.000000 -18.370199 0.000000 28.785900 5.867780 24.195801 10.118800 -10.883000 1.896420 11.570900 -0.231718 -37.611301 0.000000 23.183100 0.000000 -19.271299 -1.819850 25.605801 4.412575 0.803369 -5.742406 0.000000 0.000000 6.918700 -12.506803 0.608665 5.676291 0.000000 0.000000 -36.891300 2.470166 4.914189 -3.425105 0.000000 0.000000 5.590840 7.295960 -8.025750 8.909979 0.000000 0.000000 -27.970200 
-18.696660 9.205681 44.473008 -175.984729 -1.351182 -172.479326 2.678848 -1.080355 -9.727356 0.285934 -1.375581 4.059472 0.000000 0.000000 0.000000 -3.373743 1.326957 -10.799090 5.527578 5.918802 -54.376481 -3.869220 11.774000 -2.709130 -12.158700 -4.160120 -26.914700 0.000000 -18.356899 0.000000 28.767599 5.837250 24.219801 10.132000 -10.870300 1.878740 11.596400 -0.258980 -37.618698 0.000000 23.189600 0.000000 -19.328699 -1.830300 25.576300 4.411214 0.800674 -5.741173 0.000000 0.000000 6.933610 -12.514856 0.602421 5.673264 0.000000 0.000000 -36.870399 2.471397 4.894474 -3.409507 0.000000 0.000000 5.585670 7.295611 -8.019421 8.921041 0.000000 0.000000 -27.976200 
-18.696790 9.205601 44.473563 -175.984615 -1.358157 -172.481137 2.673578 -1.076511 -9.724203 0.281597 -1.370475 4.059063 0.000000 0.000000 0.000000 -3.341934 1.312597 -10.802373 5.512280 5.927072 -54.372296 -3.866620 11.765200 -2.697210 -12.161000 -4.169190 -26.880199 0.000000 -18.362600 0.000000 28.759199 5.847560 24.211500 10.133800 -10.871100 1.867210 11.611800 -0.264887 -37.596001 0.000000 23.187401 0.000000 -19.283701 -1.763310 25.639700 4.411347 0.802559 -5.750156 0.000000 0.000000 6.944160 -12.513089 0.592246 5.671134 0.000000 0.000000 -36.875401 2.471908 4.884776 -3.412489 0.000000 0.000000 5.591600 7.292683 -8.018542 8.916032 0.000000 0.000000 -27.971900 
-18.696870 9.205537 44.474390 -175.985964 -1.365123 -172.478441 2.664440 -1.072745 -9.721451 0.282099 -1.364385 4.062044 0.000000 0.000000 0.000000 -3.337186 1.319003 -10.818766 5.512081 5.934564 -54.360277 -3.873330 11.749200 -2.693460 -12.164400 -4.162900 -26.823200 0.000000 -18.358400 0.000000 28.775299 5.841260 24.170000 10.146200 -10.880200 1.872260 11.603400 -0.247441 -37.565102 0.000000 23.153200 0.000000 -19.261101 -1.743970 25.565800 4.410474 0.804312 -5.767560 0.000000 0.000000 6.960410 -12.496127 0.585499 5.674237 0.000000 0.000000 -36.902500 2.470486 4.871197 -3.428779 0.000000 0.000000 5.609850 7.303198 -8.008237 8.906259 0.000000 0.000000 -27.972200 
-18.696966 9.205586 44.474997 -175.988327 -1.370885 -172.482280 2.623754 -1.107448 -9.727995 0.359562 -1.387427 4.091222 0.000000 0.000000 0.000000 -3.403184 1.339485 -10.835051 5.507179 5.915893 -54.372302 -3.928520 11.788800 -2.708450 -12.169300 -4.161180 -26.836599 0.000000 -18.362700 0.000000 28.775600 5.858110 24.178200 10.110900 -10.812700 1.862710 11.603600 -0.265597 -37.536400 0.000000 23.154400 0.000000 -19.260401 -1.745210 25.581800 4.408359 0.803812 -5.770040 0.000000 0.000000 6.961710 -12.509935 0.577740 5.680370 0.000000 0.000000 -36.907499 2.467159 4.874652 -3.438291 0.000000 0.000000 5.630550 7.310543 -8.011331 8.899843 0.000000 0.000000 -27.977300 
-18.696968 9.205493 44.475897 -175.985380 -1.377279 -172.514810 2.635540 -1.070150 -9.669683 0.312351 -1.354258 4.057995 0.000000 0.000000 0.000000 -3.339889 1.314079 -10.828521 5.489443 5.935803 -54.381889 -3.899370 11.721600 -2.712820 -12.203400 -4.155630 -26.834299 0.000000 -18.364901 0.000000 28.773701 5.862130 24.190901 10.158000 -10.872300 1.861880 11.585100 -0.259353 -37.488201 0.000000 23.136700 0.000000 -19.311001 -1.734250 25.534700 4.412890 0.787716 -5.740914 0.000000 0.000000 6.954250 -12.520425 0.581021 5.678803 0.000000 0.000000 -36.897600 2.470058 4.898282 -3.424241 0.000000 0.000000 5.658480 7.310282 -8.026931 8.888752 0.000000 0.000000 -27.976400 
-18.697158 9.205493 44.476379 -175.987024 -1.388124 -172.516915 2.635707 -1.075592 -9.663439 0.304296 -1.359778 4.061115 0.000000 0.000000 0.000000 -3.366665 1.339204 -10.833284 5.506406 5.942549 -54.390794 -3.905580 11.717800 -2.705180 -12.199200 -4.145440 -26.776699 0.000000 -18.359200 0.000000 28.768299 5.868770 24.202299 10.161900 -10.868600 1.865160 11.593700 -0.245806 -37.494099 0.000000 23.150200 0.000000 -19.319901 -1.741300 25.575300 4.409885 0.783870 -5.743909 0.000000 0.000000 6.953760 -12.511045 0.582365 5.683305 0.000000 0.000000 -36.880899 2.468141 4.894609 -3.422094 0.000000 0.000000 5.653890 7.324062 -8.031695 8.890585 0.000000 0.000000 -27.980600 
-18.697282 9.205489 44.476485 -175.986818 -1.400109 -172.517913 2.637505 -1.081304 -9.662187 0.297399 -1.365974 4.066097 0.000000 0.000000 0.000000 -3.369227 1.339676 -10.841607 5.516114 5.938479 -54.392233 -3.909050 11.703500 -2.673230 -12.195100 -4.134370 -26.768900 0.000000 -18.339800 0.000000 28.744699 5.861260 24.209101 10.156400 -10.874800 1.865460 11.614600 -0.225202 -37.489399 0.000000 23.175699 0.000000 -19.337299 -1.793400 25.594801 4.409709 0.793400 -5.747313 0.000000 0.000000 6.954290 -12.492032 0.566550 5.692009 0.000000 0.000000 -36.890800 2.469780 4.885098 -3.419727 0.000000 0.000000 5.653880 7.325543 -8.035144 8.885590 0.000000 0.000000 -27.971500 
